<svg aria-roledescription="er" role="graphics-document document" viewBox="0 0 518.23779296875 524" style="max-width: 518.238px; background-color: white;" xmlns:xlink="http://www.w3.org/1999/xlink" xmlns="http://www.w3.org/2000/svg" width="100%" id="my-svg"><style>#my-svg{font-family:"trebuchet ms",verdana,arial,sans-serif;font-size:16px;fill:#000000;}#my-svg .error-icon{fill:#552222;}#my-svg .error-text{fill:#552222;stroke:#552222;}#my-svg .edge-thickness-normal{stroke-width:1px;}#my-svg .edge-thickness-thick{stroke-width:3.5px;}#my-svg .edge-pattern-solid{stroke-dasharray:0;}#my-svg .edge-thickness-invisible{stroke-width:0;fill:none;}#my-svg .edge-pattern-dashed{stroke-dasharray:3;}#my-svg .edge-pattern-dotted{stroke-dasharray:2;}#my-svg .marker{fill:#000000;stroke:#000000;}#my-svg .marker.cross{stroke:#000000;}#my-svg svg{font-family:"trebuchet ms",verdana,arial,sans-serif;font-size:16px;}#my-svg p{margin:0;}#my-svg .entityBox{fill:#cde498;stroke:#13540c;}#my-svg .attributeBoxOdd{fill:#ffffff;stroke:#13540c;}#my-svg .attributeBoxEven{fill:#f2f2f2;stroke:#13540c;}#my-svg .relationshipLabelBox{fill:hsl(78.1578947368, 58.4615384615%, 84.5098039216%);opacity:0.7;background-color:hsl(78.1578947368, 58.4615384615%, 84.5098039216%);}#my-svg .relationshipLabelBox rect{opacity:0.5;}#my-svg .relationshipLine{stroke:#000000;}#my-svg .entityTitleText{text-anchor:middle;font-size:18px;fill:#000000;}#my-svg #MD_PARENT_START{fill:#f5f5f5!important;stroke:#000000!important;stroke-width:1;}#my-svg #MD_PARENT_END{fill:#f5f5f5!important;stroke:#000000!important;stroke-width:1;}#my-svg :root{--mermaid-font-family:"trebuchet ms",verdana,arial,sans-serif;}</style><g/><defs><marker orient="auto" markerHeight="240" markerWidth="190" refY="7" refX="0" id="MD_PARENT_START"><path d="M 18,7 L9,13 L1,7 L9,1 Z"/></marker></defs><defs><marker orient="auto" markerHeight="28" markerWidth="20" refY="7" refX="19" id="MD_PARENT_END"><path d="M 18,7 L9,13 L1,7 L9,1 Z"/></marker></defs><defs><marker orient="auto" markerHeight="18" markerWidth="18" refY="9" refX="0" id="ONLY_ONE_START"><path d="M9,0 L9,18 M15,0 L15,18" fill="none" stroke="gray"/></marker></defs><defs><marker orient="auto" markerHeight="18" markerWidth="18" refY="9" refX="18" id="ONLY_ONE_END"><path d="M3,0 L3,18 M9,0 L9,18" fill="none" stroke="gray"/></marker></defs><defs><marker orient="auto" markerHeight="18" markerWidth="30" refY="9" refX="0" id="ZERO_OR_ONE_START"><circle r="6" cy="9" cx="21" fill="white" stroke="gray"/><path d="M9,0 L9,18" fill="none" stroke="gray"/></marker></defs><defs><marker orient="auto" markerHeight="18" markerWidth="30" refY="9" refX="30" id="ZERO_OR_ONE_END"><circle r="6" cy="9" cx="9" fill="white" stroke="gray"/><path d="M21,0 L21,18" fill="none" stroke="gray"/></marker></defs><defs><marker orient="auto" markerHeight="36" markerWidth="45" refY="18" refX="18" id="ONE_OR_MORE_START"><path d="M0,18 Q 18,0 36,18 Q 18,36 0,18 M42,9 L42,27" fill="none" stroke="gray"/></marker></defs><defs><marker orient="auto" markerHeight="36" markerWidth="45" refY="18" refX="27" id="ONE_OR_MORE_END"><path d="M3,9 L3,27 M9,18 Q27,0 45,18 Q27,36 9,18" fill="none" stroke="gray"/></marker></defs><defs><marker orient="auto" markerHeight="36" markerWidth="57" refY="18" refX="18" id="ZERO_OR_MORE_START"><circle r="6" cy="18" cx="48" fill="white" stroke="gray"/><path d="M0,18 Q18,0 36,18 Q18,36 0,18" fill="none" stroke="gray"/></marker></defs><defs><marker orient="auto" markerHeight="36" markerWidth="57" refY="18" refX="39" id="ZERO_OR_MORE_END"><circle r="6" cy="18" cx="9" fill="white" stroke="gray"/><path d="M21,18 Q39,0 57,18 Q39,36 21,18" fill="none" stroke="gray"/></marker></defs><path style="stroke: gray; fill: none;" marker-start="url(#ZERO_OR_ONE_START)" marker-end="url(#ONLY_ONE_END)" d="M100.005,191L95.004,199.333C90.003,207.667,80.002,224.333,75.001,253.25C70,282.167,70,323.333,70,343.917L70,364.5" class="er relationshipLine"/><path style="stroke: gray; fill: none;" marker-start="url(#ZERO_OR_MORE_START)" marker-end="url(#ZERO_OR_MORE_END)" d="M202.742,191L207.754,199.333C212.767,207.667,222.792,224.333,231.149,241C239.506,257.667,246.196,274.333,249.541,282.667L252.886,291" class="er relationshipLine"/><path style="stroke: gray; fill: none;" marker-start="url(#ZERO_OR_ONE_START)" marker-end="url(#ONLY_ONE_END)" d="M329.658,291L332.321,282.667C334.983,274.333,340.308,257.667,323.765,235.941C307.222,214.216,268.811,187.431,249.605,174.039L230.4,160.647" class="er relationshipLine"/><g transform="translate(20,364.5 )" id="entity-Role-8dbdbbc4-0419-5464-aae6-f142fb2ece67"><rect height="66" width="100" y="0" x="0" class="er entityBox"/><text style="dominant-baseline: middle; text-anchor: middle; font-size: 12px;" transform="translate(50,12)" y="0" x="0" id="text-entity-Role-8dbdbbc4-0419-5464-aae6-f142fb2ece67" class="er entityLabel">Role</text><rect height="21" width="50" y="24" x="0" class="er attributeBoxOdd"/><text style="dominant-baseline: middle; font-size: 10.2px;" transform="translate(5,34.5)" y="0" x="0" id="text-entity-Role-8dbdbbc4-0419-5464-aae6-f142fb2ece67-attr-1-type" class="er entityLabel">USER</text><rect height="21" width="50" y="24" x="50" class="er attributeBoxOdd"/><text style="dominant-baseline: middle; font-size: 10.2px;" transform="translate(55,34.5)" y="0" x="0" id="text-entity-Role-8dbdbbc4-0419-5464-aae6-f142fb2ece67-attr-1-name" class="er entityLabel">USER</text><rect height="21" width="50" y="45" x="0" class="er attributeBoxEven"/><text style="dominant-baseline: middle; font-size: 10.2px;" transform="translate(5,55.5)" y="0" x="0" id="text-entity-Role-8dbdbbc4-0419-5464-aae6-f142fb2ece67-attr-2-type" class="er entityLabel">ADMIN</text><rect height="21" width="50" y="45" x="50" class="er attributeBoxEven"/><text style="dominant-baseline: middle; font-size: 10.2px;" transform="translate(55,55.5)" y="0" x="0" id="text-entity-Role-8dbdbbc4-0419-5464-aae6-f142fb2ece67-attr-2-name" class="er entityLabel">ADMIN</text></g><g transform="translate(72.22802734375,20 )" id="entity-User-818c511a-4a32-5484-ba70-875d765a9175"><rect height="171" width="158.171875" y="0" x="0" class="er entityBox"/><text style="dominant-baseline: middle; text-anchor: middle; font-size: 12px;" transform="translate(79.0859375,12)" y="0" x="0" id="text-entity-User-818c511a-4a32-5484-ba70-875d765a9175" class="er entityLabel">User</text><rect height="21" width="59.28125" y="24" x="0" class="er attributeBoxOdd"/><text style="dominant-baseline: middle; font-size: 10.2px;" transform="translate(5,34.5)" y="0" x="0" id="text-entity-User-818c511a-4a32-5484-ba70-875d765a9175-attr-1-type" class="er entityLabel">Int</text><rect height="21" width="75.953125" y="24" x="59.28125" class="er attributeBoxOdd"/><text style="dominant-baseline: middle; font-size: 10.2px;" transform="translate(64.28125,34.5)" y="0" x="0" id="text-entity-User-818c511a-4a32-5484-ba70-875d765a9175-attr-1-name" class="er entityLabel">id</text><rect height="21" width="22.9375" y="24" x="135.234375" class="er attributeBoxOdd"/><text style="dominant-baseline: middle; font-size: 10.2px;" transform="translate(140.234375,34.5)" y="0" x="0" id="text-entity-User-818c511a-4a32-5484-ba70-875d765a9175-attr-1-comment" class="er entityLabel">🗝️</text><rect height="21" width="59.28125" y="45" x="0" class="er attributeBoxEven"/><text style="dominant-baseline: middle; font-size: 10.2px;" transform="translate(5,55.5)" y="0" x="0" id="text-entity-User-818c511a-4a32-5484-ba70-875d765a9175-attr-2-type" class="er entityLabel">String</text><rect height="21" width="75.953125" y="45" x="59.28125" class="er attributeBoxEven"/><text style="dominant-baseline: middle; font-size: 10.2px;" transform="translate(64.28125,55.5)" y="0" x="0" id="text-entity-User-818c511a-4a32-5484-ba70-875d765a9175-attr-2-name" class="er entityLabel">email</text><rect height="21" width="22.9375" y="45" x="135.234375" class="er attributeBoxEven"/><text style="dominant-baseline: middle; font-size: 10.2px;" transform="translate(140.234375,55.5)" y="0" x="0" id="text-entity-User-818c511a-4a32-5484-ba70-875d765a9175-attr-2-comment" class="er entityLabel"/><rect height="21" width="59.28125" y="66" x="0" class="er attributeBoxOdd"/><text style="dominant-baseline: middle; font-size: 10.2px;" transform="translate(5,76.5)" y="0" x="0" id="text-entity-User-818c511a-4a32-5484-ba70-875d765a9175-attr-3-type" class="er entityLabel">String</text><rect height="21" width="75.953125" y="66" x="59.28125" class="er attributeBoxOdd"/><text style="dominant-baseline: middle; font-size: 10.2px;" transform="translate(64.28125,76.5)" y="0" x="0" id="text-entity-User-818c511a-4a32-5484-ba70-875d765a9175-attr-3-name" class="er entityLabel">password</text><rect height="21" width="22.9375" y="66" x="135.234375" class="er attributeBoxOdd"/><text style="dominant-baseline: middle; font-size: 10.2px;" transform="translate(140.234375,76.5)" y="0" x="0" id="text-entity-User-818c511a-4a32-5484-ba70-875d765a9175-attr-3-comment" class="er entityLabel"/><rect height="21" width="59.28125" y="87" x="0" class="er attributeBoxEven"/><text style="dominant-baseline: middle; font-size: 10.2px;" transform="translate(5,97.5)" y="0" x="0" id="text-entity-User-818c511a-4a32-5484-ba70-875d765a9175-attr-4-type" class="er entityLabel">Role</text><rect height="21" width="75.953125" y="87" x="59.28125" class="er attributeBoxEven"/><text style="dominant-baseline: middle; font-size: 10.2px;" transform="translate(64.28125,97.5)" y="0" x="0" id="text-entity-User-818c511a-4a32-5484-ba70-875d765a9175-attr-4-name" class="er entityLabel">role</text><rect height="21" width="22.9375" y="87" x="135.234375" class="er attributeBoxEven"/><text style="dominant-baseline: middle; font-size: 10.2px;" transform="translate(140.234375,97.5)" y="0" x="0" id="text-entity-User-818c511a-4a32-5484-ba70-875d765a9175-attr-4-comment" class="er entityLabel"/><rect height="21" width="59.28125" y="108" x="0" class="er attributeBoxOdd"/><text style="dominant-baseline: middle; font-size: 10.2px;" transform="translate(5,118.5)" y="0" x="0" id="text-entity-User-818c511a-4a32-5484-ba70-875d765a9175-attr-5-type" class="er entityLabel">Int</text><rect height="21" width="75.953125" y="108" x="59.28125" class="er attributeBoxOdd"/><text style="dominant-baseline: middle; font-size: 10.2px;" transform="translate(64.28125,118.5)" y="0" x="0" id="text-entity-User-818c511a-4a32-5484-ba70-875d765a9175-attr-5-name" class="er entityLabel">tokenVersion</text><rect height="21" width="22.9375" y="108" x="135.234375" class="er attributeBoxOdd"/><text style="dominant-baseline: middle; font-size: 10.2px;" transform="translate(140.234375,118.5)" y="0" x="0" id="text-entity-User-818c511a-4a32-5484-ba70-875d765a9175-attr-5-comment" class="er entityLabel"/><rect height="21" width="59.28125" y="129" x="0" class="er attributeBoxEven"/><text style="dominant-baseline: middle; font-size: 10.2px;" transform="translate(5,139.5)" y="0" x="0" id="text-entity-User-818c511a-4a32-5484-ba70-875d765a9175-attr-6-type" class="er entityLabel">DateTime</text><rect height="21" width="75.953125" y="129" x="59.28125" class="er attributeBoxEven"/><text style="dominant-baseline: middle; font-size: 10.2px;" transform="translate(64.28125,139.5)" y="0" x="0" id="text-entity-User-818c511a-4a32-5484-ba70-875d765a9175-attr-6-name" class="er entityLabel">createdAt</text><rect height="21" width="22.9375" y="129" x="135.234375" class="er attributeBoxEven"/><text style="dominant-baseline: middle; font-size: 10.2px;" transform="translate(140.234375,139.5)" y="0" x="0" id="text-entity-User-818c511a-4a32-5484-ba70-875d765a9175-attr-6-comment" class="er entityLabel"/><rect height="21" width="59.28125" y="150" x="0" class="er attributeBoxOdd"/><text style="dominant-baseline: middle; font-size: 10.2px;" transform="translate(5,160.5)" y="0" x="0" id="text-entity-User-818c511a-4a32-5484-ba70-875d765a9175-attr-7-type" class="er entityLabel">DateTime</text><rect height="21" width="75.953125" y="150" x="59.28125" class="er attributeBoxOdd"/><text style="dominant-baseline: middle; font-size: 10.2px;" transform="translate(64.28125,160.5)" y="0" x="0" id="text-entity-User-818c511a-4a32-5484-ba70-875d765a9175-attr-7-name" class="er entityLabel">updatedAt</text><rect height="21" width="22.9375" y="150" x="135.234375" class="er attributeBoxOdd"/><text style="dominant-baseline: middle; font-size: 10.2px;" transform="translate(140.234375,160.5)" y="0" x="0" id="text-entity-User-818c511a-4a32-5484-ba70-875d765a9175-attr-7-comment" class="er entityLabel"/></g><g transform="translate(220,291 )" id="entity-Profile-65951d1c-3786-5f44-9bc8-1c33704e73ca"><rect height="213" width="151.265625" y="0" x="0" class="er entityBox"/><text style="dominant-baseline: middle; text-anchor: middle; font-size: 12px;" transform="translate(75.6328125,12)" y="0" x="0" id="text-entity-Profile-65951d1c-3786-5f44-9bc8-1c33704e73ca" class="er entityLabel">Profile</text><rect height="21" width="59.28125" y="24" x="0" class="er attributeBoxOdd"/><text style="dominant-baseline: middle; font-size: 10.2px;" transform="translate(5,34.5)" y="0" x="0" id="text-entity-Profile-65951d1c-3786-5f44-9bc8-1c33704e73ca-attr-1-type" class="er entityLabel">Int</text><rect height="21" width="69.046875" y="24" x="59.28125" class="er attributeBoxOdd"/><text style="dominant-baseline: middle; font-size: 10.2px;" transform="translate(64.28125,34.5)" y="0" x="0" id="text-entity-Profile-65951d1c-3786-5f44-9bc8-1c33704e73ca-attr-1-name" class="er entityLabel">id</text><rect height="21" width="22.9375" y="24" x="128.328125" class="er attributeBoxOdd"/><text style="dominant-baseline: middle; font-size: 10.2px;" transform="translate(133.328125,34.5)" y="0" x="0" id="text-entity-Profile-65951d1c-3786-5f44-9bc8-1c33704e73ca-attr-1-comment" class="er entityLabel">🗝️</text><rect height="21" width="59.28125" y="45" x="0" class="er attributeBoxEven"/><text style="dominant-baseline: middle; font-size: 10.2px;" transform="translate(5,55.5)" y="0" x="0" id="text-entity-Profile-65951d1c-3786-5f44-9bc8-1c33704e73ca-attr-2-type" class="er entityLabel">String</text><rect height="21" width="69.046875" y="45" x="59.28125" class="er attributeBoxEven"/><text style="dominant-baseline: middle; font-size: 10.2px;" transform="translate(64.28125,55.5)" y="0" x="0" id="text-entity-Profile-65951d1c-3786-5f44-9bc8-1c33704e73ca-attr-2-name" class="er entityLabel">name</text><rect height="21" width="22.9375" y="45" x="128.328125" class="er attributeBoxEven"/><text style="dominant-baseline: middle; font-size: 10.2px;" transform="translate(133.328125,55.5)" y="0" x="0" id="text-entity-Profile-65951d1c-3786-5f44-9bc8-1c33704e73ca-attr-2-comment" class="er entityLabel"/><rect height="21" width="59.28125" y="66" x="0" class="er attributeBoxOdd"/><text style="dominant-baseline: middle; font-size: 10.2px;" transform="translate(5,76.5)" y="0" x="0" id="text-entity-Profile-65951d1c-3786-5f44-9bc8-1c33704e73ca-attr-3-type" class="er entityLabel">DateTime</text><rect height="21" width="69.046875" y="66" x="59.28125" class="er attributeBoxOdd"/><text style="dominant-baseline: middle; font-size: 10.2px;" transform="translate(64.28125,76.5)" y="0" x="0" id="text-entity-Profile-65951d1c-3786-5f44-9bc8-1c33704e73ca-attr-3-name" class="er entityLabel">dateOfBirth</text><rect height="21" width="22.9375" y="66" x="128.328125" class="er attributeBoxOdd"/><text style="dominant-baseline: middle; font-size: 10.2px;" transform="translate(133.328125,76.5)" y="0" x="0" id="text-entity-Profile-65951d1c-3786-5f44-9bc8-1c33704e73ca-attr-3-comment" class="er entityLabel"/><rect height="21" width="59.28125" y="87" x="0" class="er attributeBoxEven"/><text style="dominant-baseline: middle; font-size: 10.2px;" transform="translate(5,97.5)" y="0" x="0" id="text-entity-Profile-65951d1c-3786-5f44-9bc8-1c33704e73ca-attr-4-type" class="er entityLabel">String</text><rect height="21" width="69.046875" y="87" x="59.28125" class="er attributeBoxEven"/><text style="dominant-baseline: middle; font-size: 10.2px;" transform="translate(64.28125,97.5)" y="0" x="0" id="text-entity-Profile-65951d1c-3786-5f44-9bc8-1c33704e73ca-attr-4-name" class="er entityLabel">gender</text><rect height="21" width="22.9375" y="87" x="128.328125" class="er attributeBoxEven"/><text style="dominant-baseline: middle; font-size: 10.2px;" transform="translate(133.328125,97.5)" y="0" x="0" id="text-entity-Profile-65951d1c-3786-5f44-9bc8-1c33704e73ca-attr-4-comment" class="er entityLabel"/><rect height="21" width="59.28125" y="108" x="0" class="er attributeBoxOdd"/><text style="dominant-baseline: middle; font-size: 10.2px;" transform="translate(5,118.5)" y="0" x="0" id="text-entity-Profile-65951d1c-3786-5f44-9bc8-1c33704e73ca-attr-5-type" class="er entityLabel">Int</text><rect height="21" width="69.046875" y="108" x="59.28125" class="er attributeBoxOdd"/><text style="dominant-baseline: middle; font-size: 10.2px;" transform="translate(64.28125,118.5)" y="0" x="0" id="text-entity-Profile-65951d1c-3786-5f44-9bc8-1c33704e73ca-attr-5-name" class="er entityLabel">heightCm</text><rect height="21" width="22.9375" y="108" x="128.328125" class="er attributeBoxOdd"/><text style="dominant-baseline: middle; font-size: 10.2px;" transform="translate(133.328125,118.5)" y="0" x="0" id="text-entity-Profile-65951d1c-3786-5f44-9bc8-1c33704e73ca-attr-5-comment" class="er entityLabel"/><rect height="21" width="59.28125" y="129" x="0" class="er attributeBoxEven"/><text style="dominant-baseline: middle; font-size: 10.2px;" transform="translate(5,139.5)" y="0" x="0" id="text-entity-Profile-65951d1c-3786-5f44-9bc8-1c33704e73ca-attr-6-type" class="er entityLabel">Int</text><rect height="21" width="69.046875" y="129" x="59.28125" class="er attributeBoxEven"/><text style="dominant-baseline: middle; font-size: 10.2px;" transform="translate(64.28125,139.5)" y="0" x="0" id="text-entity-Profile-65951d1c-3786-5f44-9bc8-1c33704e73ca-attr-6-name" class="er entityLabel">weightKg</text><rect height="21" width="22.9375" y="129" x="128.328125" class="er attributeBoxEven"/><text style="dominant-baseline: middle; font-size: 10.2px;" transform="translate(133.328125,139.5)" y="0" x="0" id="text-entity-Profile-65951d1c-3786-5f44-9bc8-1c33704e73ca-attr-6-comment" class="er entityLabel"/><rect height="21" width="59.28125" y="150" x="0" class="er attributeBoxOdd"/><text style="dominant-baseline: middle; font-size: 10.2px;" transform="translate(5,160.5)" y="0" x="0" id="text-entity-Profile-65951d1c-3786-5f44-9bc8-1c33704e73ca-attr-7-type" class="er entityLabel">String</text><rect height="21" width="69.046875" y="150" x="59.28125" class="er attributeBoxOdd"/><text style="dominant-baseline: middle; font-size: 10.2px;" transform="translate(64.28125,160.5)" y="0" x="0" id="text-entity-Profile-65951d1c-3786-5f44-9bc8-1c33704e73ca-attr-7-name" class="er entityLabel">bloodType</text><rect height="21" width="22.9375" y="150" x="128.328125" class="er attributeBoxOdd"/><text style="dominant-baseline: middle; font-size: 10.2px;" transform="translate(133.328125,160.5)" y="0" x="0" id="text-entity-Profile-65951d1c-3786-5f44-9bc8-1c33704e73ca-attr-7-comment" class="er entityLabel"/><rect height="21" width="59.28125" y="171" x="0" class="er attributeBoxEven"/><text style="dominant-baseline: middle; font-size: 10.2px;" transform="translate(5,181.5)" y="0" x="0" id="text-entity-Profile-65951d1c-3786-5f44-9bc8-1c33704e73ca-attr-8-type" class="er entityLabel">DateTime</text><rect height="21" width="69.046875" y="171" x="59.28125" class="er attributeBoxEven"/><text style="dominant-baseline: middle; font-size: 10.2px;" transform="translate(64.28125,181.5)" y="0" x="0" id="text-entity-Profile-65951d1c-3786-5f44-9bc8-1c33704e73ca-attr-8-name" class="er entityLabel">createdAt</text><rect height="21" width="22.9375" y="171" x="128.328125" class="er attributeBoxEven"/><text style="dominant-baseline: middle; font-size: 10.2px;" transform="translate(133.328125,181.5)" y="0" x="0" id="text-entity-Profile-65951d1c-3786-5f44-9bc8-1c33704e73ca-attr-8-comment" class="er entityLabel"/><rect height="21" width="59.28125" y="192" x="0" class="er attributeBoxOdd"/><text style="dominant-baseline: middle; font-size: 10.2px;" transform="translate(5,202.5)" y="0" x="0" id="text-entity-Profile-65951d1c-3786-5f44-9bc8-1c33704e73ca-attr-9-type" class="er entityLabel">DateTime</text><rect height="21" width="69.046875" y="192" x="59.28125" class="er attributeBoxOdd"/><text style="dominant-baseline: middle; font-size: 10.2px;" transform="translate(64.28125,202.5)" y="0" x="0" id="text-entity-Profile-65951d1c-3786-5f44-9bc8-1c33704e73ca-attr-9-name" class="er entityLabel">updatedAt</text><rect height="21" width="22.9375" y="192" x="128.328125" class="er attributeBoxOdd"/><text style="dominant-baseline: middle; font-size: 10.2px;" transform="translate(133.328125,202.5)" y="0" x="0" id="text-entity-Profile-65951d1c-3786-5f44-9bc8-1c33704e73ca-attr-9-comment" class="er entityLabel"/></g><g transform="translate(330.39990234375,41 )" id="entity-PendingPasswordReset-1d4a6474-1717-5bf2-89c3-39c546708eaa"><rect height="129" width="167.837890625" y="0" x="0" class="er entityBox"/><text style="dominant-baseline: middle; text-anchor: middle; font-size: 12px;" transform="translate(83.9189453125,12)" y="0" x="0" id="text-entity-PendingPasswordReset-1d4a6474-1717-5bf2-89c3-39c546708eaa" class="er entityLabel">PendingPasswordReset</text><rect height="21" width="66.76888020833333" y="24" x="0" class="er attributeBoxOdd"/><text style="dominant-baseline: middle; font-size: 10.2px;" transform="translate(5,34.5)" y="0" x="0" id="text-entity-PendingPasswordReset-1d4a6474-1717-5bf2-89c3-39c546708eaa-attr-1-type" class="er entityLabel">Int</text><rect height="21" width="70.64388020833333" y="24" x="66.76888020833333" class="er attributeBoxOdd"/><text style="dominant-baseline: middle; font-size: 10.2px;" transform="translate(71.76888020833333,34.5)" y="0" x="0" id="text-entity-PendingPasswordReset-1d4a6474-1717-5bf2-89c3-39c546708eaa-attr-1-name" class="er entityLabel">id</text><rect height="21" width="30.425130208333332" y="24" x="137.41276041666666" class="er attributeBoxOdd"/><text style="dominant-baseline: middle; font-size: 10.2px;" transform="translate(142.41276041666666,34.5)" y="0" x="0" id="text-entity-PendingPasswordReset-1d4a6474-1717-5bf2-89c3-39c546708eaa-attr-1-comment" class="er entityLabel">🗝️</text><rect height="21" width="66.76888020833333" y="45" x="0" class="er attributeBoxEven"/><text style="dominant-baseline: middle; font-size: 10.2px;" transform="translate(5,55.5)" y="0" x="0" id="text-entity-PendingPasswordReset-1d4a6474-1717-5bf2-89c3-39c546708eaa-attr-2-type" class="er entityLabel">String</text><rect height="21" width="70.64388020833333" y="45" x="66.76888020833333" class="er attributeBoxEven"/><text style="dominant-baseline: middle; font-size: 10.2px;" transform="translate(71.76888020833333,55.5)" y="0" x="0" id="text-entity-PendingPasswordReset-1d4a6474-1717-5bf2-89c3-39c546708eaa-attr-2-name" class="er entityLabel">email</text><rect height="21" width="30.425130208333332" y="45" x="137.41276041666666" class="er attributeBoxEven"/><text style="dominant-baseline: middle; font-size: 10.2px;" transform="translate(142.41276041666666,55.5)" y="0" x="0" id="text-entity-PendingPasswordReset-1d4a6474-1717-5bf2-89c3-39c546708eaa-attr-2-comment" class="er entityLabel"/><rect height="21" width="66.76888020833333" y="66" x="0" class="er attributeBoxOdd"/><text style="dominant-baseline: middle; font-size: 10.2px;" transform="translate(5,76.5)" y="0" x="0" id="text-entity-PendingPasswordReset-1d4a6474-1717-5bf2-89c3-39c546708eaa-attr-3-type" class="er entityLabel">String</text><rect height="21" width="70.64388020833333" y="66" x="66.76888020833333" class="er attributeBoxOdd"/><text style="dominant-baseline: middle; font-size: 10.2px;" transform="translate(71.76888020833333,76.5)" y="0" x="0" id="text-entity-PendingPasswordReset-1d4a6474-1717-5bf2-89c3-39c546708eaa-attr-3-name" class="er entityLabel">code</text><rect height="21" width="30.425130208333332" y="66" x="137.41276041666666" class="er attributeBoxOdd"/><text style="dominant-baseline: middle; font-size: 10.2px;" transform="translate(142.41276041666666,76.5)" y="0" x="0" id="text-entity-PendingPasswordReset-1d4a6474-1717-5bf2-89c3-39c546708eaa-attr-3-comment" class="er entityLabel"/><rect height="21" width="66.76888020833333" y="87" x="0" class="er attributeBoxEven"/><text style="dominant-baseline: middle; font-size: 10.2px;" transform="translate(5,97.5)" y="0" x="0" id="text-entity-PendingPasswordReset-1d4a6474-1717-5bf2-89c3-39c546708eaa-attr-4-type" class="er entityLabel">DateTime</text><rect height="21" width="70.64388020833333" y="87" x="66.76888020833333" class="er attributeBoxEven"/><text style="dominant-baseline: middle; font-size: 10.2px;" transform="translate(71.76888020833333,97.5)" y="0" x="0" id="text-entity-PendingPasswordReset-1d4a6474-1717-5bf2-89c3-39c546708eaa-attr-4-name" class="er entityLabel">createdAt</text><rect height="21" width="30.425130208333332" y="87" x="137.41276041666666" class="er attributeBoxEven"/><text style="dominant-baseline: middle; font-size: 10.2px;" transform="translate(142.41276041666666,97.5)" y="0" x="0" id="text-entity-PendingPasswordReset-1d4a6474-1717-5bf2-89c3-39c546708eaa-attr-4-comment" class="er entityLabel"/><rect height="21" width="66.76888020833333" y="108" x="0" class="er attributeBoxOdd"/><text style="dominant-baseline: middle; font-size: 10.2px;" transform="translate(5,118.5)" y="0" x="0" id="text-entity-PendingPasswordReset-1d4a6474-1717-5bf2-89c3-39c546708eaa-attr-5-type" class="er entityLabel">DateTime</text><rect height="21" width="70.64388020833333" y="108" x="66.76888020833333" class="er attributeBoxOdd"/><text style="dominant-baseline: middle; font-size: 10.2px;" transform="translate(71.76888020833333,118.5)" y="0" x="0" id="text-entity-PendingPasswordReset-1d4a6474-1717-5bf2-89c3-39c546708eaa-attr-5-name" class="er entityLabel">updatedAt</text><rect height="21" width="30.425130208333332" y="108" x="137.41276041666666" class="er attributeBoxOdd"/><text style="dominant-baseline: middle; font-size: 10.2px;" transform="translate(142.41276041666666,118.5)" y="0" x="0" id="text-entity-PendingPasswordReset-1d4a6474-1717-5bf2-89c3-39c546708eaa-attr-5-comment" class="er entityLabel"/></g><rect height="14" width="61.0625" y="268.0193786621094" x="41.727508544921875" class="er relationshipLabelBox"/><text style="text-anchor: middle; dominant-baseline: middle; font-size: 12px;" y="275.0193786621094" x="72.25875854492188" id="rel1" class="er relationshipLabel">enum:role</text><rect height="14" width="37.3125" y="232.66818237304688" x="211.8212127685547" class="er relationshipLabelBox"/><text style="text-anchor: middle; dominant-baseline: middle; font-size: 12px;" y="239.66818237304688" x="230.4774627685547" id="rel2" class="er relationshipLabel">Profile</text><rect height="14" width="26.240234375" y="206.86973571777344" x="289.0877990722656" class="er relationshipLabelBox"/><text style="text-anchor: middle; dominant-baseline: middle; font-size: 12px;" y="213.86973571777344" x="302.2079162597656" id="rel3" class="er relationshipLabel">user</text></svg>