<svg aria-roledescription="er" role="graphics-document document" viewBox="0 0 440 340" style="max-width: 440px; background-color: white;" xmlns:xlink="http://www.w3.org/1999/xlink" xmlns="http://www.w3.org/2000/svg" width="100%" id="my-svg"><style>#my-svg{font-family:"trebuchet ms",verdana,arial,sans-serif;font-size:16px;fill:#000000;}#my-svg .error-icon{fill:#552222;}#my-svg .error-text{fill:#552222;stroke:#552222;}#my-svg .edge-thickness-normal{stroke-width:1px;}#my-svg .edge-thickness-thick{stroke-width:3.5px;}#my-svg .edge-pattern-solid{stroke-dasharray:0;}#my-svg .edge-thickness-invisible{stroke-width:0;fill:none;}#my-svg .edge-pattern-dashed{stroke-dasharray:3;}#my-svg .edge-pattern-dotted{stroke-dasharray:2;}#my-svg .marker{fill:#000000;stroke:#000000;}#my-svg .marker.cross{stroke:#000000;}#my-svg svg{font-family:"trebuchet ms",verdana,arial,sans-serif;font-size:16px;}#my-svg p{margin:0;}#my-svg .entityBox{fill:#cde498;stroke:#13540c;}#my-svg .attributeBoxOdd{fill:#ffffff;stroke:#13540c;}#my-svg .attributeBoxEven{fill:#f2f2f2;stroke:#13540c;}#my-svg .relationshipLabelBox{fill:hsl(78.1578947368, 58.4615384615%, 84.5098039216%);opacity:0.7;background-color:hsl(78.1578947368, 58.4615384615%, 84.5098039216%);}#my-svg .relationshipLabelBox rect{opacity:0.5;}#my-svg .relationshipLine{stroke:#000000;}#my-svg .entityTitleText{text-anchor:middle;font-size:18px;fill:#000000;}#my-svg #MD_PARENT_START{fill:#f5f5f5!important;stroke:#000000!important;stroke-width:1;}#my-svg #MD_PARENT_END{fill:#f5f5f5!important;stroke:#000000!important;stroke-width:1;}#my-svg :root{--mermaid-font-family:"trebuchet ms",verdana,arial,sans-serif;}</style><g/><defs><marker orient="auto" markerHeight="240" markerWidth="190" refY="7" refX="0" id="MD_PARENT_START"><path d="M 18,7 L9,13 L1,7 L9,1 Z"/></marker></defs><defs><marker orient="auto" markerHeight="28" markerWidth="20" refY="7" refX="19" id="MD_PARENT_END"><path d="M 18,7 L9,13 L1,7 L9,1 Z"/></marker></defs><defs><marker orient="auto" markerHeight="18" markerWidth="18" refY="9" refX="0" id="ONLY_ONE_START"><path d="M9,0 L9,18 M15,0 L15,18" fill="none" stroke="gray"/></marker></defs><defs><marker orient="auto" markerHeight="18" markerWidth="18" refY="9" refX="18" id="ONLY_ONE_END"><path d="M3,0 L3,18 M9,0 L9,18" fill="none" stroke="gray"/></marker></defs><defs><marker orient="auto" markerHeight="18" markerWidth="30" refY="9" refX="0" id="ZERO_OR_ONE_START"><circle r="6" cy="9" cx="21" fill="white" stroke="gray"/><path d="M9,0 L9,18" fill="none" stroke="gray"/></marker></defs><defs><marker orient="auto" markerHeight="18" markerWidth="30" refY="9" refX="30" id="ZERO_OR_ONE_END"><circle r="6" cy="9" cx="9" fill="white" stroke="gray"/><path d="M21,0 L21,18" fill="none" stroke="gray"/></marker></defs><defs><marker orient="auto" markerHeight="36" markerWidth="45" refY="18" refX="18" id="ONE_OR_MORE_START"><path d="M0,18 Q 18,0 36,18 Q 18,36 0,18 M42,9 L42,27" fill="none" stroke="gray"/></marker></defs><defs><marker orient="auto" markerHeight="36" markerWidth="45" refY="18" refX="27" id="ONE_OR_MORE_END"><path d="M3,9 L3,27 M9,18 Q27,0 45,18 Q27,36 9,18" fill="none" stroke="gray"/></marker></defs><defs><marker orient="auto" markerHeight="36" markerWidth="57" refY="18" refX="18" id="ZERO_OR_MORE_START"><circle r="6" cy="18" cx="48" fill="white" stroke="gray"/><path d="M0,18 Q18,0 36,18 Q18,36 0,18" fill="none" stroke="gray"/></marker></defs><defs><marker orient="auto" markerHeight="36" markerWidth="57" refY="18" refX="39" id="ZERO_OR_MORE_END"><circle r="6" cy="18" cx="9" fill="white" stroke="gray"/><path d="M21,18 Q39,0 57,18 Q39,36 21,18" fill="none" stroke="gray"/></marker></defs><path style="stroke: gray; fill: none;" marker-start="url(#ZERO_OR_ONE_START)" marker-end="url(#ONLY_ONE_END)" d="M120,120L111.667,128.333C103.333,136.667,86.667,153.333,78.333,175.833C70,198.333,70,226.667,70,240.833L70,255" class="er relationshipLine"/><path style="stroke: gray; fill: none;" marker-start="url(#ZERO_OR_MORE_START)" marker-end="url(#ZERO_OR_MORE_END)" d="M195,120L199.167,128.333C203.333,136.667,211.667,153.333,220,170C228.333,186.667,236.667,203.333,240.833,211.667L245,220" class="er relationshipLine"/><path style="stroke: gray; fill: none;" marker-start="url(#ZERO_OR_ONE_START)" marker-end="url(#ONLY_ONE_END)" d="M295,220L299.167,211.667C303.333,203.333,311.667,186.667,299.167,167.222C286.667,147.778,253.333,125.556,236.667,114.444L220,103.333" class="er relationshipLine"/><g transform="translate(20,255 )" id="entity-Role-8dbdbbc4-0419-5464-aae6-f142fb2ece67"><rect height="30" width="100" y="0" x="0" class="er entityBox"/><text style="dominant-baseline: middle; text-anchor: middle; font-size: 12px;" transform="translate(50,5)" y="0" x="0" id="text-entity-Role-8dbdbbc4-0419-5464-aae6-f142fb2ece67" class="er entityLabel">Role</text><rect height="10" width="50" y="10" x="0" class="er attributeBoxOdd"/><text style="dominant-baseline: middle; font-size: 10.2px;" transform="translate(5,15)" y="0" x="0" id="text-entity-Role-8dbdbbc4-0419-5464-aae6-f142fb2ece67-attr-1-type" class="er entityLabel">USER</text><rect height="10" width="50" y="10" x="50" class="er attributeBoxOdd"/><text style="dominant-baseline: middle; font-size: 10.2px;" transform="translate(55,15)" y="0" x="0" id="text-entity-Role-8dbdbbc4-0419-5464-aae6-f142fb2ece67-attr-1-name" class="er entityLabel">USER</text><rect height="10" width="50" y="20" x="0" class="er attributeBoxEven"/><text style="dominant-baseline: middle; font-size: 10.2px;" transform="translate(5,25)" y="0" x="0" id="text-entity-Role-8dbdbbc4-0419-5464-aae6-f142fb2ece67-attr-2-type" class="er entityLabel">ADMIN</text><rect height="10" width="50" y="20" x="50" class="er attributeBoxEven"/><text style="dominant-baseline: middle; font-size: 10.2px;" transform="translate(55,25)" y="0" x="0" id="text-entity-Role-8dbdbbc4-0419-5464-aae6-f142fb2ece67-attr-2-name" class="er entityLabel">ADMIN</text></g><g transform="translate(120,20 )" id="entity-User-818c511a-4a32-5484-ba70-875d765a9175"><rect height="100" width="100" y="0" x="0" class="er entityBox"/><text style="dominant-baseline: middle; text-anchor: middle; font-size: 12px;" transform="translate(50,5)" y="0" x="0" id="text-entity-User-818c511a-4a32-5484-ba70-875d765a9175" class="er entityLabel">User</text><rect height="10" width="33.33333333333333" y="10" x="0" class="er attributeBoxOdd"/><text style="dominant-baseline: middle; font-size: 10.2px;" transform="translate(5,15)" y="0" x="0" id="text-entity-User-818c511a-4a32-5484-ba70-875d765a9175-attr-1-type" class="er entityLabel">Int</text><rect height="10" width="33.33333333333333" y="10" x="33.33333333333333" class="er attributeBoxOdd"/><text style="dominant-baseline: middle; font-size: 10.2px;" transform="translate(38.33333333333333,15)" y="0" x="0" id="text-entity-User-818c511a-4a32-5484-ba70-875d765a9175-attr-1-name" class="er entityLabel">id</text><rect height="10" width="33.33333333333333" y="10" x="66.66666666666666" class="er attributeBoxOdd"/><text style="dominant-baseline: middle; font-size: 10.2px;" transform="translate(71.66666666666666,15)" y="0" x="0" id="text-entity-User-818c511a-4a32-5484-ba70-875d765a9175-attr-1-comment" class="er entityLabel">🗝️</text><rect height="10" width="33.33333333333333" y="20" x="0" class="er attributeBoxEven"/><text style="dominant-baseline: middle; font-size: 10.2px;" transform="translate(5,25)" y="0" x="0" id="text-entity-User-818c511a-4a32-5484-ba70-875d765a9175-attr-2-type" class="er entityLabel">String</text><rect height="10" width="33.33333333333333" y="20" x="33.33333333333333" class="er attributeBoxEven"/><text style="dominant-baseline: middle; font-size: 10.2px;" transform="translate(38.33333333333333,25)" y="0" x="0" id="text-entity-User-818c511a-4a32-5484-ba70-875d765a9175-attr-2-name" class="er entityLabel">email</text><rect height="10" width="33.33333333333333" y="20" x="66.66666666666666" class="er attributeBoxEven"/><text style="dominant-baseline: middle; font-size: 10.2px;" transform="translate(71.66666666666666,25)" y="0" x="0" id="text-entity-User-818c511a-4a32-5484-ba70-875d765a9175-attr-2-comment" class="er entityLabel"/><rect height="10" width="33.33333333333333" y="30" x="0" class="er attributeBoxOdd"/><text style="dominant-baseline: middle; font-size: 10.2px;" transform="translate(5,35)" y="0" x="0" id="text-entity-User-818c511a-4a32-5484-ba70-875d765a9175-attr-3-type" class="er entityLabel">String</text><rect height="10" width="33.33333333333333" y="30" x="33.33333333333333" class="er attributeBoxOdd"/><text style="dominant-baseline: middle; font-size: 10.2px;" transform="translate(38.33333333333333,35)" y="0" x="0" id="text-entity-User-818c511a-4a32-5484-ba70-875d765a9175-attr-3-name" class="er entityLabel">password</text><rect height="10" width="33.33333333333333" y="30" x="66.66666666666666" class="er attributeBoxOdd"/><text style="dominant-baseline: middle; font-size: 10.2px;" transform="translate(71.66666666666666,35)" y="0" x="0" id="text-entity-User-818c511a-4a32-5484-ba70-875d765a9175-attr-3-comment" class="er entityLabel"/><rect height="10" width="33.33333333333333" y="40" x="0" class="er attributeBoxEven"/><text style="dominant-baseline: middle; font-size: 10.2px;" transform="translate(5,45)" y="0" x="0" id="text-entity-User-818c511a-4a32-5484-ba70-875d765a9175-attr-4-type" class="er entityLabel">Role</text><rect height="10" width="33.33333333333333" y="40" x="33.33333333333333" class="er attributeBoxEven"/><text style="dominant-baseline: middle; font-size: 10.2px;" transform="translate(38.33333333333333,45)" y="0" x="0" id="text-entity-User-818c511a-4a32-5484-ba70-875d765a9175-attr-4-name" class="er entityLabel">role</text><rect height="10" width="33.33333333333333" y="40" x="66.66666666666666" class="er attributeBoxEven"/><text style="dominant-baseline: middle; font-size: 10.2px;" transform="translate(71.66666666666666,45)" y="0" x="0" id="text-entity-User-818c511a-4a32-5484-ba70-875d765a9175-attr-4-comment" class="er entityLabel"/><rect height="10" width="33.33333333333333" y="50" x="0" class="er attributeBoxOdd"/><text style="dominant-baseline: middle; font-size: 10.2px;" transform="translate(5,55)" y="0" x="0" id="text-entity-User-818c511a-4a32-5484-ba70-875d765a9175-attr-5-type" class="er entityLabel">Boolean</text><rect height="10" width="33.33333333333333" y="50" x="33.33333333333333" class="er attributeBoxOdd"/><text style="dominant-baseline: middle; font-size: 10.2px;" transform="translate(38.33333333333333,55)" y="0" x="0" id="text-entity-User-818c511a-4a32-5484-ba70-875d765a9175-attr-5-name" class="er entityLabel">is_verified</text><rect height="10" width="33.33333333333333" y="50" x="66.66666666666666" class="er attributeBoxOdd"/><text style="dominant-baseline: middle; font-size: 10.2px;" transform="translate(71.66666666666666,55)" y="0" x="0" id="text-entity-User-818c511a-4a32-5484-ba70-875d765a9175-attr-5-comment" class="er entityLabel"/><rect height="10" width="33.33333333333333" y="60" x="0" class="er attributeBoxEven"/><text style="dominant-baseline: middle; font-size: 10.2px;" transform="translate(5,65)" y="0" x="0" id="text-entity-User-818c511a-4a32-5484-ba70-875d765a9175-attr-6-type" class="er entityLabel">String</text><rect height="10" width="33.33333333333333" y="60" x="33.33333333333333" class="er attributeBoxEven"/><text style="dominant-baseline: middle; font-size: 10.2px;" transform="translate(38.33333333333333,65)" y="0" x="0" id="text-entity-User-818c511a-4a32-5484-ba70-875d765a9175-attr-6-name" class="er entityLabel">verificationToken</text><rect height="10" width="33.33333333333333" y="60" x="66.66666666666666" class="er attributeBoxEven"/><text style="dominant-baseline: middle; font-size: 10.2px;" transform="translate(71.66666666666666,65)" y="0" x="0" id="text-entity-User-818c511a-4a32-5484-ba70-875d765a9175-attr-6-comment" class="er entityLabel">❓</text><rect height="10" width="33.33333333333333" y="70" x="0" class="er attributeBoxOdd"/><text style="dominant-baseline: middle; font-size: 10.2px;" transform="translate(5,75)" y="0" x="0" id="text-entity-User-818c511a-4a32-5484-ba70-875d765a9175-attr-7-type" class="er entityLabel">Int</text><rect height="10" width="33.33333333333333" y="70" x="33.33333333333333" class="er attributeBoxOdd"/><text style="dominant-baseline: middle; font-size: 10.2px;" transform="translate(38.33333333333333,75)" y="0" x="0" id="text-entity-User-818c511a-4a32-5484-ba70-875d765a9175-attr-7-name" class="er entityLabel">tokenVersion</text><rect height="10" width="33.33333333333333" y="70" x="66.66666666666666" class="er attributeBoxOdd"/><text style="dominant-baseline: middle; font-size: 10.2px;" transform="translate(71.66666666666666,75)" y="0" x="0" id="text-entity-User-818c511a-4a32-5484-ba70-875d765a9175-attr-7-comment" class="er entityLabel"/><rect height="10" width="33.33333333333333" y="80" x="0" class="er attributeBoxEven"/><text style="dominant-baseline: middle; font-size: 10.2px;" transform="translate(5,85)" y="0" x="0" id="text-entity-User-818c511a-4a32-5484-ba70-875d765a9175-attr-8-type" class="er entityLabel">DateTime</text><rect height="10" width="33.33333333333333" y="80" x="33.33333333333333" class="er attributeBoxEven"/><text style="dominant-baseline: middle; font-size: 10.2px;" transform="translate(38.33333333333333,85)" y="0" x="0" id="text-entity-User-818c511a-4a32-5484-ba70-875d765a9175-attr-8-name" class="er entityLabel">createdAt</text><rect height="10" width="33.33333333333333" y="80" x="66.66666666666666" class="er attributeBoxEven"/><text style="dominant-baseline: middle; font-size: 10.2px;" transform="translate(71.66666666666666,85)" y="0" x="0" id="text-entity-User-818c511a-4a32-5484-ba70-875d765a9175-attr-8-comment" class="er entityLabel"/><rect height="10" width="33.33333333333333" y="90" x="0" class="er attributeBoxOdd"/><text style="dominant-baseline: middle; font-size: 10.2px;" transform="translate(5,95)" y="0" x="0" id="text-entity-User-818c511a-4a32-5484-ba70-875d765a9175-attr-9-type" class="er entityLabel">DateTime</text><rect height="10" width="33.33333333333333" y="90" x="33.33333333333333" class="er attributeBoxOdd"/><text style="dominant-baseline: middle; font-size: 10.2px;" transform="translate(38.33333333333333,95)" y="0" x="0" id="text-entity-User-818c511a-4a32-5484-ba70-875d765a9175-attr-9-name" class="er entityLabel">updatedAt</text><rect height="10" width="33.33333333333333" y="90" x="66.66666666666666" class="er attributeBoxOdd"/><text style="dominant-baseline: middle; font-size: 10.2px;" transform="translate(71.66666666666666,95)" y="0" x="0" id="text-entity-User-818c511a-4a32-5484-ba70-875d765a9175-attr-9-comment" class="er entityLabel"/></g><g transform="translate(220,220 )" id="entity-Profile-65951d1c-3786-5f44-9bc8-1c33704e73ca"><rect height="100" width="100" y="0" x="0" class="er entityBox"/><text style="dominant-baseline: middle; text-anchor: middle; font-size: 12px;" transform="translate(50,5)" y="0" x="0" id="text-entity-Profile-65951d1c-3786-5f44-9bc8-1c33704e73ca" class="er entityLabel">Profile</text><rect height="10" width="33.33333333333333" y="10" x="0" class="er attributeBoxOdd"/><text style="dominant-baseline: middle; font-size: 10.2px;" transform="translate(5,15)" y="0" x="0" id="text-entity-Profile-65951d1c-3786-5f44-9bc8-1c33704e73ca-attr-1-type" class="er entityLabel">Int</text><rect height="10" width="33.33333333333333" y="10" x="33.33333333333333" class="er attributeBoxOdd"/><text style="dominant-baseline: middle; font-size: 10.2px;" transform="translate(38.33333333333333,15)" y="0" x="0" id="text-entity-Profile-65951d1c-3786-5f44-9bc8-1c33704e73ca-attr-1-name" class="er entityLabel">id</text><rect height="10" width="33.33333333333333" y="10" x="66.66666666666666" class="er attributeBoxOdd"/><text style="dominant-baseline: middle; font-size: 10.2px;" transform="translate(71.66666666666666,15)" y="0" x="0" id="text-entity-Profile-65951d1c-3786-5f44-9bc8-1c33704e73ca-attr-1-comment" class="er entityLabel">🗝️</text><rect height="10" width="33.33333333333333" y="20" x="0" class="er attributeBoxEven"/><text style="dominant-baseline: middle; font-size: 10.2px;" transform="translate(5,25)" y="0" x="0" id="text-entity-Profile-65951d1c-3786-5f44-9bc8-1c33704e73ca-attr-2-type" class="er entityLabel">String</text><rect height="10" width="33.33333333333333" y="20" x="33.33333333333333" class="er attributeBoxEven"/><text style="dominant-baseline: middle; font-size: 10.2px;" transform="translate(38.33333333333333,25)" y="0" x="0" id="text-entity-Profile-65951d1c-3786-5f44-9bc8-1c33704e73ca-attr-2-name" class="er entityLabel">name</text><rect height="10" width="33.33333333333333" y="20" x="66.66666666666666" class="er attributeBoxEven"/><text style="dominant-baseline: middle; font-size: 10.2px;" transform="translate(71.66666666666666,25)" y="0" x="0" id="text-entity-Profile-65951d1c-3786-5f44-9bc8-1c33704e73ca-attr-2-comment" class="er entityLabel"/><rect height="10" width="33.33333333333333" y="30" x="0" class="er attributeBoxOdd"/><text style="dominant-baseline: middle; font-size: 10.2px;" transform="translate(5,35)" y="0" x="0" id="text-entity-Profile-65951d1c-3786-5f44-9bc8-1c33704e73ca-attr-3-type" class="er entityLabel">DateTime</text><rect height="10" width="33.33333333333333" y="30" x="33.33333333333333" class="er attributeBoxOdd"/><text style="dominant-baseline: middle; font-size: 10.2px;" transform="translate(38.33333333333333,35)" y="0" x="0" id="text-entity-Profile-65951d1c-3786-5f44-9bc8-1c33704e73ca-attr-3-name" class="er entityLabel">dateOfBirth</text><rect height="10" width="33.33333333333333" y="30" x="66.66666666666666" class="er attributeBoxOdd"/><text style="dominant-baseline: middle; font-size: 10.2px;" transform="translate(71.66666666666666,35)" y="0" x="0" id="text-entity-Profile-65951d1c-3786-5f44-9bc8-1c33704e73ca-attr-3-comment" class="er entityLabel"/><rect height="10" width="33.33333333333333" y="40" x="0" class="er attributeBoxEven"/><text style="dominant-baseline: middle; font-size: 10.2px;" transform="translate(5,45)" y="0" x="0" id="text-entity-Profile-65951d1c-3786-5f44-9bc8-1c33704e73ca-attr-4-type" class="er entityLabel">String</text><rect height="10" width="33.33333333333333" y="40" x="33.33333333333333" class="er attributeBoxEven"/><text style="dominant-baseline: middle; font-size: 10.2px;" transform="translate(38.33333333333333,45)" y="0" x="0" id="text-entity-Profile-65951d1c-3786-5f44-9bc8-1c33704e73ca-attr-4-name" class="er entityLabel">gender</text><rect height="10" width="33.33333333333333" y="40" x="66.66666666666666" class="er attributeBoxEven"/><text style="dominant-baseline: middle; font-size: 10.2px;" transform="translate(71.66666666666666,45)" y="0" x="0" id="text-entity-Profile-65951d1c-3786-5f44-9bc8-1c33704e73ca-attr-4-comment" class="er entityLabel"/><rect height="10" width="33.33333333333333" y="50" x="0" class="er attributeBoxOdd"/><text style="dominant-baseline: middle; font-size: 10.2px;" transform="translate(5,55)" y="0" x="0" id="text-entity-Profile-65951d1c-3786-5f44-9bc8-1c33704e73ca-attr-5-type" class="er entityLabel">Int</text><rect height="10" width="33.33333333333333" y="50" x="33.33333333333333" class="er attributeBoxOdd"/><text style="dominant-baseline: middle; font-size: 10.2px;" transform="translate(38.33333333333333,55)" y="0" x="0" id="text-entity-Profile-65951d1c-3786-5f44-9bc8-1c33704e73ca-attr-5-name" class="er entityLabel">heightCm</text><rect height="10" width="33.33333333333333" y="50" x="66.66666666666666" class="er attributeBoxOdd"/><text style="dominant-baseline: middle; font-size: 10.2px;" transform="translate(71.66666666666666,55)" y="0" x="0" id="text-entity-Profile-65951d1c-3786-5f44-9bc8-1c33704e73ca-attr-5-comment" class="er entityLabel"/><rect height="10" width="33.33333333333333" y="60" x="0" class="er attributeBoxEven"/><text style="dominant-baseline: middle; font-size: 10.2px;" transform="translate(5,65)" y="0" x="0" id="text-entity-Profile-65951d1c-3786-5f44-9bc8-1c33704e73ca-attr-6-type" class="er entityLabel">Int</text><rect height="10" width="33.33333333333333" y="60" x="33.33333333333333" class="er attributeBoxEven"/><text style="dominant-baseline: middle; font-size: 10.2px;" transform="translate(38.33333333333333,65)" y="0" x="0" id="text-entity-Profile-65951d1c-3786-5f44-9bc8-1c33704e73ca-attr-6-name" class="er entityLabel">weightKg</text><rect height="10" width="33.33333333333333" y="60" x="66.66666666666666" class="er attributeBoxEven"/><text style="dominant-baseline: middle; font-size: 10.2px;" transform="translate(71.66666666666666,65)" y="0" x="0" id="text-entity-Profile-65951d1c-3786-5f44-9bc8-1c33704e73ca-attr-6-comment" class="er entityLabel"/><rect height="10" width="33.33333333333333" y="70" x="0" class="er attributeBoxOdd"/><text style="dominant-baseline: middle; font-size: 10.2px;" transform="translate(5,75)" y="0" x="0" id="text-entity-Profile-65951d1c-3786-5f44-9bc8-1c33704e73ca-attr-7-type" class="er entityLabel">String</text><rect height="10" width="33.33333333333333" y="70" x="33.33333333333333" class="er attributeBoxOdd"/><text style="dominant-baseline: middle; font-size: 10.2px;" transform="translate(38.33333333333333,75)" y="0" x="0" id="text-entity-Profile-65951d1c-3786-5f44-9bc8-1c33704e73ca-attr-7-name" class="er entityLabel">bloodType</text><rect height="10" width="33.33333333333333" y="70" x="66.66666666666666" class="er attributeBoxOdd"/><text style="dominant-baseline: middle; font-size: 10.2px;" transform="translate(71.66666666666666,75)" y="0" x="0" id="text-entity-Profile-65951d1c-3786-5f44-9bc8-1c33704e73ca-attr-7-comment" class="er entityLabel"/><rect height="10" width="33.33333333333333" y="80" x="0" class="er attributeBoxEven"/><text style="dominant-baseline: middle; font-size: 10.2px;" transform="translate(5,85)" y="0" x="0" id="text-entity-Profile-65951d1c-3786-5f44-9bc8-1c33704e73ca-attr-8-type" class="er entityLabel">DateTime</text><rect height="10" width="33.33333333333333" y="80" x="33.33333333333333" class="er attributeBoxEven"/><text style="dominant-baseline: middle; font-size: 10.2px;" transform="translate(38.33333333333333,85)" y="0" x="0" id="text-entity-Profile-65951d1c-3786-5f44-9bc8-1c33704e73ca-attr-8-name" class="er entityLabel">createdAt</text><rect height="10" width="33.33333333333333" y="80" x="66.66666666666666" class="er attributeBoxEven"/><text style="dominant-baseline: middle; font-size: 10.2px;" transform="translate(71.66666666666666,85)" y="0" x="0" id="text-entity-Profile-65951d1c-3786-5f44-9bc8-1c33704e73ca-attr-8-comment" class="er entityLabel"/><rect height="10" width="33.33333333333333" y="90" x="0" class="er attributeBoxOdd"/><text style="dominant-baseline: middle; font-size: 10.2px;" transform="translate(5,95)" y="0" x="0" id="text-entity-Profile-65951d1c-3786-5f44-9bc8-1c33704e73ca-attr-9-type" class="er entityLabel">DateTime</text><rect height="10" width="33.33333333333333" y="90" x="33.33333333333333" class="er attributeBoxOdd"/><text style="dominant-baseline: middle; font-size: 10.2px;" transform="translate(38.33333333333333,95)" y="0" x="0" id="text-entity-Profile-65951d1c-3786-5f44-9bc8-1c33704e73ca-attr-9-name" class="er entityLabel">updatedAt</text><rect height="10" width="33.33333333333333" y="90" x="66.66666666666666" class="er attributeBoxOdd"/><text style="dominant-baseline: middle; font-size: 10.2px;" transform="translate(71.66666666666666,95)" y="0" x="0" id="text-entity-Profile-65951d1c-3786-5f44-9bc8-1c33704e73ca-attr-9-comment" class="er entityLabel"/></g><g transform="translate(320,40 )" id="entity-PendingPasswordReset-1d4a6474-1717-5bf2-89c3-39c546708eaa"><rect height="60" width="100" y="0" x="0" class="er entityBox"/><text style="dominant-baseline: middle; text-anchor: middle; font-size: 12px;" transform="translate(50,5)" y="0" x="0" id="text-entity-PendingPasswordReset-1d4a6474-1717-5bf2-89c3-39c546708eaa" class="er entityLabel">PendingPasswordReset</text><rect height="10" width="33.33333333333333" y="10" x="0" class="er attributeBoxOdd"/><text style="dominant-baseline: middle; font-size: 10.2px;" transform="translate(5,15)" y="0" x="0" id="text-entity-PendingPasswordReset-1d4a6474-1717-5bf2-89c3-39c546708eaa-attr-1-type" class="er entityLabel">Int</text><rect height="10" width="33.33333333333333" y="10" x="33.33333333333333" class="er attributeBoxOdd"/><text style="dominant-baseline: middle; font-size: 10.2px;" transform="translate(38.33333333333333,15)" y="0" x="0" id="text-entity-PendingPasswordReset-1d4a6474-1717-5bf2-89c3-39c546708eaa-attr-1-name" class="er entityLabel">id</text><rect height="10" width="33.33333333333333" y="10" x="66.66666666666666" class="er attributeBoxOdd"/><text style="dominant-baseline: middle; font-size: 10.2px;" transform="translate(71.66666666666666,15)" y="0" x="0" id="text-entity-PendingPasswordReset-1d4a6474-1717-5bf2-89c3-39c546708eaa-attr-1-comment" class="er entityLabel">🗝️</text><rect height="10" width="33.33333333333333" y="20" x="0" class="er attributeBoxEven"/><text style="dominant-baseline: middle; font-size: 10.2px;" transform="translate(5,25)" y="0" x="0" id="text-entity-PendingPasswordReset-1d4a6474-1717-5bf2-89c3-39c546708eaa-attr-2-type" class="er entityLabel">String</text><rect height="10" width="33.33333333333333" y="20" x="33.33333333333333" class="er attributeBoxEven"/><text style="dominant-baseline: middle; font-size: 10.2px;" transform="translate(38.33333333333333,25)" y="0" x="0" id="text-entity-PendingPasswordReset-1d4a6474-1717-5bf2-89c3-39c546708eaa-attr-2-name" class="er entityLabel">email</text><rect height="10" width="33.33333333333333" y="20" x="66.66666666666666" class="er attributeBoxEven"/><text style="dominant-baseline: middle; font-size: 10.2px;" transform="translate(71.66666666666666,25)" y="0" x="0" id="text-entity-PendingPasswordReset-1d4a6474-1717-5bf2-89c3-39c546708eaa-attr-2-comment" class="er entityLabel"/><rect height="10" width="33.33333333333333" y="30" x="0" class="er attributeBoxOdd"/><text style="dominant-baseline: middle; font-size: 10.2px;" transform="translate(5,35)" y="0" x="0" id="text-entity-PendingPasswordReset-1d4a6474-1717-5bf2-89c3-39c546708eaa-attr-3-type" class="er entityLabel">String</text><rect height="10" width="33.33333333333333" y="30" x="33.33333333333333" class="er attributeBoxOdd"/><text style="dominant-baseline: middle; font-size: 10.2px;" transform="translate(38.33333333333333,35)" y="0" x="0" id="text-entity-PendingPasswordReset-1d4a6474-1717-5bf2-89c3-39c546708eaa-attr-3-name" class="er entityLabel">code</text><rect height="10" width="33.33333333333333" y="30" x="66.66666666666666" class="er attributeBoxOdd"/><text style="dominant-baseline: middle; font-size: 10.2px;" transform="translate(71.66666666666666,35)" y="0" x="0" id="text-entity-PendingPasswordReset-1d4a6474-1717-5bf2-89c3-39c546708eaa-attr-3-comment" class="er entityLabel"/><rect height="10" width="33.33333333333333" y="40" x="0" class="er attributeBoxEven"/><text style="dominant-baseline: middle; font-size: 10.2px;" transform="translate(5,45)" y="0" x="0" id="text-entity-PendingPasswordReset-1d4a6474-1717-5bf2-89c3-39c546708eaa-attr-4-type" class="er entityLabel">DateTime</text><rect height="10" width="33.33333333333333" y="40" x="33.33333333333333" class="er attributeBoxEven"/><text style="dominant-baseline: middle; font-size: 10.2px;" transform="translate(38.33333333333333,45)" y="0" x="0" id="text-entity-PendingPasswordReset-1d4a6474-1717-5bf2-89c3-39c546708eaa-attr-4-name" class="er entityLabel">createdAt</text><rect height="10" width="33.33333333333333" y="40" x="66.66666666666666" class="er attributeBoxEven"/><text style="dominant-baseline: middle; font-size: 10.2px;" transform="translate(71.66666666666666,45)" y="0" x="0" id="text-entity-PendingPasswordReset-1d4a6474-1717-5bf2-89c3-39c546708eaa-attr-4-comment" class="er entityLabel"/><rect height="10" width="33.33333333333333" y="50" x="0" class="er attributeBoxOdd"/><text style="dominant-baseline: middle; font-size: 10.2px;" transform="translate(5,55)" y="0" x="0" id="text-entity-PendingPasswordReset-1d4a6474-1717-5bf2-89c3-39c546708eaa-attr-5-type" class="er entityLabel">DateTime</text><rect height="10" width="33.33333333333333" y="50" x="33.33333333333333" class="er attributeBoxOdd"/><text style="dominant-baseline: middle; font-size: 10.2px;" transform="translate(38.33333333333333,55)" y="0" x="0" id="text-entity-PendingPasswordReset-1d4a6474-1717-5bf2-89c3-39c546708eaa-attr-5-name" class="er entityLabel">updatedAt</text><rect height="10" width="33.33333333333333" y="50" x="66.66666666666666" class="er attributeBoxOdd"/><text style="dominant-baseline: middle; font-size: 10.2px;" transform="translate(71.66666666666666,55)" y="0" x="0" id="text-entity-PendingPasswordReset-1d4a6474-1717-5bf2-89c3-39c546708eaa-attr-5-comment" class="er entityLabel"/></g><rect height="0" width="0" y="180.4464111328125" x="76.76212310791016" class="er relationshipLabelBox"/><text style="text-anchor: middle; dominant-baseline: middle; font-size: 12px;" y="180.4464111328125" x="76.76212310791016" id="rel1" class="er relationshipLabel">enum:role</text><rect height="0" width="0" y="170" x="220" class="er relationshipLabelBox"/><text style="text-anchor: middle; dominant-baseline: middle; font-size: 12px;" y="170" x="220" id="rel2" class="er relationshipLabel">Profile</text><rect height="0" width="0" y="149.97796630859375" x="283.98724365234375" class="er relationshipLabelBox"/><text style="text-anchor: middle; dominant-baseline: middle; font-size: 12px;" y="149.97796630859375" x="283.98724365234375" id="rel3" class="er relationshipLabel">user</text></svg>